<mxfile host="app.diagrams.net" modified="2022-05-24T13:31:05.091Z" agent="5.0 (Windows)" etag="CY2i_gleJzOmzPRKKPgr" version="18.1.2" type="github">
  <diagram id="ufgozyma8YGOAhXWsStg" name="Page-1">
    <mxGraphModel dx="2348" dy="737" grid="1" gridSize="10" guides="1" tooltips="1" connect="1" arrows="1" fold="1" page="1" pageScale="1" pageWidth="1169" pageHeight="1654" math="0" shadow="0">
      <root>
        <mxCell id="0" />
        <mxCell id="1" parent="0" />
        <mxCell id="5zRH47j1EbJvik7yn0Cy-7" value="FX Venues" style="rounded=1;whiteSpace=wrap;html=1;fillColor=none;dashed=1;labelPosition=center;verticalLabelPosition=top;align=center;verticalAlign=bottom;" parent="1" vertex="1">
          <mxGeometry x="-50" y="250" width="310" height="350" as="geometry" />
        </mxCell>
        <mxCell id="5zRH47j1EbJvik7yn0Cy-1" value="&lt;div&gt;LP&lt;/div&gt;&lt;div&gt;Liquidity Provider&lt;/div&gt;&lt;div&gt;Maker&lt;br&gt;&lt;/div&gt;" style="rounded=1;whiteSpace=wrap;html=1;" parent="1" vertex="1">
          <mxGeometry x="340" y="340" width="120" height="60" as="geometry" />
        </mxCell>
        <mxCell id="5zRH47j1EbJvik7yn0Cy-13" value="&lt;div&gt;multicast&lt;/div&gt;&lt;div&gt;protobuf&lt;br&gt;&lt;/div&gt;" style="rounded=0;orthogonalLoop=1;jettySize=auto;html=1;entryX=0;entryY=0.5;entryDx=0;entryDy=0;" parent="1" source="5zRH47j1EbJvik7yn0Cy-2" target="5zRH47j1EbJvik7yn0Cy-4" edge="1">
          <mxGeometry relative="1" as="geometry" />
        </mxCell>
        <mxCell id="5zRH47j1EbJvik7yn0Cy-2" value="&lt;div&gt;LP&lt;/div&gt;" style="rounded=1;whiteSpace=wrap;html=1;" parent="1" vertex="1">
          <mxGeometry x="340" y="460" width="120" height="60" as="geometry" />
        </mxCell>
        <mxCell id="5zRH47j1EbJvik7yn0Cy-3" value="&lt;div&gt;CLOB&lt;/div&gt;" style="rounded=1;whiteSpace=wrap;html=1;" parent="1" vertex="1">
          <mxGeometry x="520" y="210" width="120" height="60" as="geometry" />
        </mxCell>
        <mxCell id="5zRH47j1EbJvik7yn0Cy-14" value="TCP" style="edgeStyle=none;rounded=0;orthogonalLoop=1;jettySize=auto;html=1;entryX=0.5;entryY=0;entryDx=0;entryDy=0;startArrow=classic;startFill=1;" parent="1" source="5zRH47j1EbJvik7yn0Cy-4" target="5zRH47j1EbJvik7yn0Cy-9" edge="1">
          <mxGeometry relative="1" as="geometry" />
        </mxCell>
        <mxCell id="5zRH47j1EbJvik7yn0Cy-15" value="&lt;div&gt;FIX&lt;/div&gt;&lt;div&gt;B2Bits&lt;br&gt;&lt;/div&gt;" style="edgeStyle=none;rounded=0;orthogonalLoop=1;jettySize=auto;html=1;entryX=0;entryY=0.5;entryDx=0;entryDy=0;startArrow=classic;startFill=1;" parent="1" source="5zRH47j1EbJvik7yn0Cy-4" target="5zRH47j1EbJvik7yn0Cy-11" edge="1">
          <mxGeometry relative="1" as="geometry" />
        </mxCell>
        <mxCell id="5zRH47j1EbJvik7yn0Cy-4" value="&lt;div&gt;LT&lt;/div&gt;&lt;div&gt;Liquidity Taker&lt;/div&gt;" style="rounded=1;whiteSpace=wrap;html=1;" parent="1" vertex="1">
          <mxGeometry x="700" y="410" width="120" height="60" as="geometry" />
        </mxCell>
        <mxCell id="5zRH47j1EbJvik7yn0Cy-5" value="Risk" style="rounded=1;whiteSpace=wrap;html=1;" parent="1" vertex="1">
          <mxGeometry x="540" y="550" width="120" height="60" as="geometry" />
        </mxCell>
        <mxCell id="5zRH47j1EbJvik7yn0Cy-16" value="Hotspot ITCH" style="edgeStyle=none;rounded=0;orthogonalLoop=1;jettySize=auto;html=1;entryX=0;entryY=0.5;entryDx=0;entryDy=0;startArrow=classic;startFill=1;" parent="1" source="5zRH47j1EbJvik7yn0Cy-6" target="5zRH47j1EbJvik7yn0Cy-2" edge="1">
          <mxGeometry relative="1" as="geometry" />
        </mxCell>
        <mxCell id="5zRH47j1EbJvik7yn0Cy-6" value="&lt;div&gt;Hotspot&lt;/div&gt;" style="rounded=1;whiteSpace=wrap;html=1;" parent="1" vertex="1">
          <mxGeometry x="45" y="450" width="120" height="60" as="geometry" />
        </mxCell>
        <mxCell id="5zRH47j1EbJvik7yn0Cy-8" value="EBS" style="rounded=1;whiteSpace=wrap;html=1;" parent="1" vertex="1">
          <mxGeometry x="45" y="310" width="120" height="60" as="geometry" />
        </mxCell>
        <mxCell id="5zRH47j1EbJvik7yn0Cy-9" value="Report server" style="rounded=1;whiteSpace=wrap;html=1;" parent="1" vertex="1">
          <mxGeometry x="690" y="570" width="120" height="60" as="geometry" />
        </mxCell>
        <mxCell id="5zRH47j1EbJvik7yn0Cy-10" value="&lt;div&gt;kdb&lt;/div&gt;" style="shape=cylinder3;whiteSpace=wrap;html=1;boundedLbl=1;backgroundOutline=1;size=15;fillColor=default;" parent="1" vertex="1">
          <mxGeometry x="610" y="670" width="60" height="80" as="geometry" />
        </mxCell>
        <mxCell id="5zRH47j1EbJvik7yn0Cy-11" value="Operators" style="rounded=1;whiteSpace=wrap;html=1;fillColor=none;dashed=1;labelPosition=center;verticalLabelPosition=top;align=center;verticalAlign=bottom;" parent="1" vertex="1">
          <mxGeometry x="940" y="270" width="240" height="350" as="geometry" />
        </mxCell>
        <mxCell id="96f36qs7huAkd9IPAFJt-1" value="redis" style="shape=cylinder3;whiteSpace=wrap;html=1;boundedLbl=1;backgroundOutline=1;size=15;fillColor=default;" vertex="1" parent="1">
          <mxGeometry x="700" y="670" width="60" height="80" as="geometry" />
        </mxCell>
      </root>
    </mxGraphModel>
  </diagram>
</mxfile>
